<svg width="528px" height="528px" viewBox="0 0 528 528" version="1.1" xmlns="http://www.w3.org/2000/svg" xmlns:xlink="http://www.w3.org/1999/xlink">
    <g stroke="none" stroke-width="1" fill="none" fill-rule="evenodd">
        <g fill-rule="nonzero">
            <rect fill="#E6E6E6" x="0" y="0" width="528" height="528"></rect>
            <path d="M60.1731069,390.433394 C60.1731069,390.433394 4.86941456,330.691937 50.8165414,266.00363 C91.5856042,208.603681 139.1222,212.528182 173.992202,235.827846 C188.838171,245.754525 231.671905,237.048069 268.11499,178.642261 C317.814575,98.9979777 490.116301,147.295722 458.687418,269.829193 C443.48095,329.125434 504.945883,331.285559 473.631704,390.54882 L60.1731069,390.433394 Z" fill="#D2FCF0"></path>
            <g transform="translate(64.002133, 309.371013)">
                <polygon fill="#4AD3B0" transform="translate(39.282128, 37.945564) rotate(-42.625188) translate(-39.282128, -37.945564) " points="12.693825 11.3433896 66.0373819 11.1764381 65.8704305 64.5477381 12.5268735 64.7146897"></polygon>
                <polygon fill="#2D806A" transform="translate(24.915453, 22.220748) rotate(-42.625188) translate(-24.915453, -22.220748) " points="-1.73950651 16.9276327 51.6040505 16.7606811 51.5704133 27.5138636 -1.77314369 27.6808152"></polygon>
            </g>
            <g transform="translate(201.668629, 139.034483)">
                <polygon fill="#2D806A" points="17.4677737 15.3352346 44.3084989 19.1772881 26.4966135 6.97505834 25.5953682 10.8830698 19.0736291 12.0703137"></polygon>
                <polygon fill="#4AD3B0" points="44.3084989 19.1772881 21.9740005 7.60165932 0.0983176752 6.49686285"></polygon>
                <polygon fill="#4AD3B0" points="26.4966135 6.97505834 44.3084989 19.1772881 30.5276382 0.0989369976"></polygon>
            </g>
            <g transform="translate(327.679115, 169.704952)" fill="#2F3758">
                <path d="M41.5228315,37.9258491 L34.7716844,42.8067409 L27.9877649,37.9918071 C29.4953025,35.8646617 31.9696307,34.4465648 34.7716844,34.4465648 C37.557352,34.4465648 40.0152938,35.8151932 41.5228315,37.9258491 Z"></path>
                <path d="M34.7716844,22.574125 C27.9877649,22.574125 21.9903867,25.9709618 18.3526328,31.1651543 L22.6294515,34.1992222 C25.3168014,30.3571687 29.7574831,27.8672544 34.7716844,27.8672544 C39.7367271,27.8672544 44.1446361,30.3241898 46.8319859,34.1167746 L51.0924186,31.0332382 C47.4546646,25.9050038 41.490059,22.574125 34.7716844,22.574125 Z"></path>
                <path d="M34.7716844,0 C20.4173039,0 7.7179375,7.17293234 0.0327725584,18.1549391 L4.30959144,21.1890069 C11.0607385,11.5756287 22.2034083,5.27663988 34.7716844,5.27663988 C47.2416429,5.27663988 58.3023815,11.4766917 65.0699147,20.9581541 L69.3139611,17.8746176 C61.6124098,7.05750584 49.0113611,0 34.7716844,0 Z"></path>
                <path d="M34.7716844,12.3506352 C24.5630325,12.3506352 15.5014201,17.429401 9.99563031,25.2289344 L14.2724492,28.2630023 C18.844221,21.8320975 26.3163645,17.627275 34.7716844,17.627275 C43.1450732,17.627275 50.5844439,21.7661395 55.1562158,28.0981073 L59.4002622,25.0310604 C53.8944723,17.3469535 44.8984051,12.3506352 34.7716844,12.3506352 Z"></path>
            </g>
            <path d="M222.44643,237.212963 L216.252417,237.064558 C218.235157,239.653409 218.693972,242.044387 217.448614,244.072596 C216.203258,246.133783 213.253727,247.832202 208.829431,249.118381 C212.172232,240.148095 213.860019,230.699611 213.860019,221.003786 C213.860019,200.029142 205.748812,179.499715 190.444026,164.147991 C175.63083,149.241483 155.606797,140.584496 133.944136,140.584496 C121.785517,140.584496 110.020168,143.305263 99.3363142,148.482966 C99.3363142,148.482966 99.3363142,148.482966 99.319928,148.482966 C95.8788094,147.427638 92.5360083,146.570184 89.3079113,145.910604 C73.0035635,142.579725 61.4348504,144.888255 56.7319883,152.390977 C52.258534,159.530931 54.7000897,170.282084 63.5650667,182.814104 C63.5650667,182.814104 63.5650667,182.814104 63.5650667,182.814104 C61.5823269,186.507753 59.6651322,190.877469 58.2722984,195.065803 C41.5910662,196.071663 32.6605442,199.023282 29.4160609,204.36588 C25.6472166,210.598912 30.7925082,218.942599 47.2934915,227.071921 C49.5711842,228.193207 51.9963536,229.298004 54.5526131,230.4028 C56.5353529,247.881669 64.4335396,264.816386 77.4114726,277.876069 C84.7525257,285.246876 93.3061634,291.05118 102.810205,295.107597 C131.961396,307.474721 166.716694,301.686907 190.444026,277.876069 C197.588444,270.686648 203.24171,262.309982 207.239963,253.042883 C215.383943,251.344464 220.72587,248.689655 222.856086,245.177391 C224.347238,242.769925 224.166989,240.065647 222.44643,237.212963 Z M203.356414,250.388074 C197.932555,251.360954 191.18141,251.938087 183.283222,252.020533 C171.042673,252.16894 156.966858,251.19606 142.153662,249.233809 C143.399019,246.496551 144.62799,243.693338 145.824188,240.824164 C150.428733,242.374176 154.885801,243.594401 159.146233,244.468344 C164.029345,245.457713 168.470026,245.952399 172.451891,245.952399 C181.759298,245.952399 188.428514,243.248121 191.738543,237.98797 C192.279289,237.114026 192.72172,236.207104 193.065832,235.234223 L188.31381,235.234223 C188.231879,235.382629 188.149947,235.531034 188.068016,235.662951 C185.626461,239.570963 180.153444,241.59917 172.468278,241.582681 C168.797751,241.582681 164.619251,241.120975 160.014706,240.181073 C156.016454,239.356598 151.80518,238.218823 147.479202,236.767747 C148.626242,233.882085 149.740509,230.963443 150.805617,227.978844 C153.705989,219.948457 156.180317,211.984029 158.179443,204.349391 C174.418245,206.756858 191.378045,206.822815 207.682393,205.586103 C208.714727,210.615401 209.239089,215.760125 209.239089,220.987295 C209.206317,231.194296 207.239963,241.071507 203.356414,250.388074 Z M104.448833,290.259683 C102.138368,289.418719 100.974942,286.087841 100.385036,283.43303 C99.4674044,279.244698 99.3035417,273.374436 99.909834,266.432357 C100.221173,262.920094 100.696375,259.193467 101.351827,255.285455 C110.80671,257.824837 120.179661,261.089759 129.306819,265.01426 C127.258534,268.575992 125.177477,271.890381 123.096419,274.891469 C119.130939,280.596837 115.263778,285.016022 111.90459,287.637853 C109.79076,289.286803 106.759299,291.100648 104.448833,290.259683 Z M131.420649,261.287632 C121.867448,257.148768 112.052067,253.718953 102.138368,251.080632 C102.48248,249.266788 102.87575,247.419963 103.285408,245.55665 C106.038302,246.183251 108.840356,246.793363 111.675182,247.386985 C119.96664,249.085403 128.225325,250.53648 136.320146,251.707234 C134.714291,255.038113 133.075663,258.237076 131.420649,261.287632 Z M113.494059,244.352917 C110.298735,243.693338 107.136183,243.000778 104.039176,242.275239 C105.497555,236.157635 107.300046,229.792688 109.381103,223.295826 C120.261593,230.023542 131.338718,235.498055 141.80955,239.389578 C140.498648,242.555561 139.138586,245.622608 137.762139,248.607208 C129.798407,247.469432 121.654426,246.051336 113.494059,244.352917 Z M86.8991283,161.839461 C92.9456653,174.305522 104.612696,184.59497 117.1482,191.405134 C114.100352,198.066892 111.216367,205.190355 108.545403,212.577652 C108.053815,213.962768 107.562226,215.331397 107.087024,216.700027 C91.1923335,206.278661 77.7228119,194.340264 68.8906074,182.764636 C68.8906074,182.764636 68.8906074,182.764636 68.8906074,182.764636 C73.5770833,174.750739 79.6563929,167.693233 86.8991283,161.839461 Z M154.902187,150.296811 C157.212652,151.137775 158.376078,154.468654 158.965984,157.123464 C159.883616,161.311797 160.047479,167.182058 159.441186,174.124137 C158.785735,181.725798 157.278197,190.349806 155.016891,199.534458 C143.956153,197.621675 132.9118,194.45569 122.735921,189.492351 C127.078285,180.390147 131.650057,172.277314 136.238215,165.665025 C140.203695,159.959658 144.070856,155.540472 147.430044,152.918641 C149.183376,151.550013 151.543,150.082448 153.624057,150.082448 C154.066487,150.082448 154.49253,150.148406 154.902187,150.296811 Z M153.968169,203.673322 C152.018202,211.060616 149.609419,218.761214 146.807365,226.527767 C145.725871,229.528856 144.611604,232.480477 143.464564,235.36614 C132.944573,231.474617 121.76913,225.917656 110.790323,219.058025 C111.363843,217.392585 111.937363,215.710656 112.543655,214.028727 C115.149074,206.806326 117.967514,199.864247 120.93343,193.350895 C131.289559,198.396681 142.51416,201.661602 153.968169,203.673322 Z M187.16677,167.429401 C196.932993,177.257143 203.405573,189.047136 206.682829,201.39777 C189.32976,202.667462 173.435069,202.271714 159.211778,200.210527 C161.473085,190.943428 162.980623,182.203993 163.65246,174.503396 C164.389843,165.994815 164.291525,155.91973 160.866793,150.247342 C170.796877,154.072906 179.661854,159.87721 187.16677,167.429401 Z M133.944136,145.234535 C139.154973,145.234535 144.283878,145.762199 149.298079,146.817527 C143.382633,149.406378 137.352482,156.612289 132.764324,163.224579 C128.077848,169.985273 123.391372,178.279492 118.967077,187.546591 C107.021479,181.016749 95.7477191,171.007622 90.3566332,159.21763 C102.941296,150.197874 118.082218,145.234535 133.944136,145.234535 Z M60.3861285,154.715997 C62.8276842,150.807985 68.3007014,148.796267 75.9858662,148.796267 C79.6563929,148.796267 83.8348941,149.257973 88.4394385,150.197874 C90.1763841,150.560643 91.9624886,150.972881 93.7813656,151.451076 C93.7813656,151.451076 93.7813656,151.451076 93.7813656,151.451076 C82.8189447,157.832512 73.1674263,167.066632 65.9738497,178.642261 C65.9738497,178.642261 65.9738497,178.642261 65.9738497,178.642261 C59.1735438,168.501218 57.1416452,159.910189 60.3861285,154.715997 Z M66.6620735,186.952968 C66.6620735,186.952968 66.6620735,186.952968 66.6620735,186.952968 C75.96948,198.644024 89.6684094,210.598912 105.677804,220.970806 C103.400111,227.929374 101.466531,234.756028 99.909834,241.318848 C86.6369477,238.086907 71.2010728,233.519315 59.0096811,228.325124 C57.9937318,218.151102 59.0916125,207.861654 62.1394604,198.149339 C63.3192724,194.373243 64.875969,190.481722 66.6620735,186.952968 Z M50.9804042,224.680944 C36.593251,217.623437 30.0223531,210.796786 32.9554971,205.965362 C35.3315075,202.04086 43.9670767,199.386051 57.2071904,198.413172 C54.5362269,207.465906 53.6185953,216.881411 54.1593425,226.197978 C53.0614618,225.703293 52.0127399,225.192118 50.9804042,224.680944 Z M99.1560652,244.58377 C98.7464081,246.430594 98.3695237,248.244438 98.0254118,250.025304 C97.1077802,249.794452 96.1737623,249.580088 95.2561307,249.365725 C79.6400066,245.787503 67.923817,245.061965 62.4835723,244.93005 C61.1398973,240.857142 60.1567206,236.6853 59.5176557,232.414519 C70.1523509,236.553383 82.130721,240.510864 99.1560652,244.58377 Z M64.056655,249.266788 C69.857398,249.49764 80.5904108,250.388074 94.3057265,253.521078 C95.2889032,253.751932 96.27208,253.982784 97.2552567,254.230127 C96.5506467,258.368991 96.0262857,262.342962 95.6985603,266.053098 C95.0922678,273.110603 95.0431091,281.239927 96.9930763,287.044231 C91.044857,283.680373 85.588226,279.508531 80.6887285,274.57817 C73.3968342,267.240343 67.7927267,258.632824 64.056655,249.266788 Z M111.118049,293.227794 C116.689384,290.292663 122.277105,283.548458 126.586697,277.331915 C128.815231,274.132953 131.027378,270.571221 133.22314,266.745656 C145.873347,272.500493 158.01558,279.590978 169.436817,287.835726 C150.625368,297.94379 129.421523,299.098056 111.118049,293.227794 Z M187.16677,274.57817 C183.004656,278.782992 178.416498,282.427172 173.467842,285.494218 C161.473085,276.672335 148.659015,269.120146 135.304197,263.002542 C137.13946,259.622193 138.941951,256.043971 140.711669,252.317346 C152.935833,253.949806 164.684796,254.922685 175.417809,255.186518 C178.219863,255.268965 180.939985,255.268965 183.578175,255.252476 C190.411254,255.170029 196.50695,254.757792 201.717787,254.032253 C198.047261,261.633912 193.164149,268.543013 187.16677,274.57817 Z" id="Shape" fill="#2F3758"></path>
            <g transform="translate(65.334785, 177.784806)">
                <g>
                    <path d="M120.111427,71.9766658 L109.067074,204.222453 C109.067074,204.222453 107.903649,212.236349 113.835482,212.252839 C123.585318,212.269328 162.322482,212.252839 162.322482,212.252839 C162.322482,212.252839 154.997815,210.587399 155.079746,206.827793 C155.178064,202.408607 167.992134,70.7234638 167.992134,70.7234638 L120.111427,71.9766658 Z" fill="#2F3758"></path>
                    <path d="M165.468647,209.861862 C163.551453,209.861862 126.534848,209.977288 117.047192,209.861862 C112.91785,209.812393 112.180467,206.168213 112.147695,203.793726 C112.131309,202.65595 112.278785,201.831475 112.278785,201.831475 L112.573738,198.401659 L113.311121,189.645735 L113.950186,181.91216 L114.785886,171.968991 L115.490496,163.575836 L123.339524,69.6021779 L171.220232,68.3489759 C171.220232,68.3489759 165.829146,123.456884 162.011143,163.559347 C161.585099,168.028 161.175442,172.315271 160.798558,176.322219 C160.683854,177.59191 160.552764,178.845113 160.454446,180.065336 C160.093948,183.85792 159.782609,187.353695 159.487656,190.420741 C159.340179,192.036713 159.209089,193.553747 159.077998,194.922374 C158.58641,200.330931 158.307843,203.793726 158.307843,204.436816 C158.307843,204.816075 158.340616,205.178844 158.406161,205.508633 C159.176316,209.713456 164.747651,209.861862 165.468647,209.861862 Z" fill="#5766A3"></path>
                    <polygon fill="#5766A3" points="3.83438933 0.0164894996 30.757046 108.847187 34.443959 123.737205 46.9794625 174.425927 279.926808 174.425927 233.7175 0.0164894996"></polygon>
                    <polygon fill="#2F3758" points="3.83438933 0.0164894996 0.0983176752 1.26969147 42.01442 178.218512 46.9794625 174.425927"></polygon>
                    <polygon fill="#2F3758" points="42.01442 178.218512 273.536158 178.218512 279.926808 174.425927 46.9794625 174.425927"></polygon>
                    <rect fill="#5766A3" transform="translate(148.383331, 211.105202) rotate(-180.000000) translate(-148.383331, -211.105202) " x="123.320517" y="209.909713" width="50.125628" height="2.39097745"></rect>
                    <polygon fill="#2F3758" points="160.70024 178.218512 160.454446 180.048847 113.311121 189.629246 113.950186 181.89567 114.261525 178.218512"></polygon>
                    <path d="M165.468647,209.861862 C163.551453,209.861862 126.534848,209.977288 117.047192,209.861862 C112.91785,209.812393 112.180467,206.168213 112.147695,203.793726 L159.061612,194.905885 C158.570024,200.314442 158.291457,203.777237 158.291457,204.420327 C158.291457,204.799586 158.32423,205.162355 158.389775,205.492144 C159.176316,209.713456 164.747651,209.861862 165.468647,209.861862 Z" fill="#3E4B75"></path>
                    <polygon fill="#2F3758" points="149.311776 139.121908 46.9794625 174.425927 34.443959 123.737205"></polygon>
                    <polygon fill="#2D806A" points="3.83438933 0.0164894996 233.7175 0.0164894996 271.012672 140.193726 37.3279441 140.193726"></polygon>
                </g>
                <path d="M169.630763,157.903448 C168.958926,154.473632 165.665283,151.686907 162.24055,151.686907 C158.832204,151.686907 156.587284,154.473632 157.259122,157.903448 C157.930959,161.333264 161.224601,164.120206 164.649333,164.120206 C168.05768,164.136479 170.286213,161.349754 169.630763,157.903448 Z" fill="#4AD3B0"></path>
                <polygon fill="#E9F3FE" points="260.164955 134.1091 44.9311776 134.1091 20.5647804 36.3923256 18.6967445 28.9060929 17.0908893 22.508167 15.8127594 17.3964221 13.3548176 7.53570133 225.491589 7.53570133 225.639065 8.06336532 228.195324 17.3964221 229.588158 22.508167 231.34149 28.9060929 233.406161 36.3923256"></polygon>
                <polygon fill="#D2FCF0" points="260.164955 134.45538 44.9311776 134.45538 20.5647804 36.7386051 18.6967445 29.2358829 17.0908893 22.8544465 15.8127594 17.7262121 13.3548176 7.86549132 225.491589 7.86549132 225.639065 8.4096448 228.195324 17.7262121 229.588158 22.8544465 231.34149 29.2358829 233.406161 36.7386051"></polygon>
                <polygon fill="#4AD3B0" points="228.195324 17.3964221 15.8127594 17.3964221 13.3548176 7.53570133 225.409657 7.53570133 225.639065 8.06336532"></polygon>
                <g transform="translate(19.171947, 9.728805)" fill="#E9F3FE">
                    <path d="M0.081931396,2.73725694 C-0.180249072,1.69841846 0.458815818,0.85745398 1.47476513,0.85745398 C2.49071444,0.85745398 3.53943631,1.69841846 3.80161677,2.73725694 C4.06379725,3.77609541 3.42473236,4.61705989 2.40878304,4.61705989 C1.39283373,4.61705989 0.344111863,3.77609541 0.081931396,2.73725694 Z"></path>
                    <ellipse transform="translate(8.127971, 2.752097) rotate(-48.547271) translate(-8.127971, -2.752097) " cx="8.12797143" cy="2.75209673" rx="1.66037736" ry="2.11966568"></ellipse>
                    <path d="M12.9287743,2.73725694 C12.6665938,1.69841846 13.3056587,0.85745398 14.321608,0.85745398 C15.3375573,0.85745398 16.3862792,1.69841846 16.6484597,2.73725694 C16.9106402,3.77609541 16.2715753,4.61705989 15.2556259,4.61705989 C14.2396766,4.61705989 13.1909548,3.77609541 12.9287743,2.73725694 Z"></path>
                </g>
                <g transform="translate(51.944506, 23.579985)">
                    <path d="M60.039327,110.875395 L38.7535502,110.875395 C38.5569149,109.193466 38.3766658,107.42909 38.2128032,105.582266 C37.9342364,102.267877 37.7048285,98.7061448 37.5409657,95.0124967 C37.5081932,94.1550428 37.4754205,93.2975889 37.442648,92.4236453 C37.4098754,91.3188488 37.3607166,90.1975629 37.3279441,89.0762769 C37.2787851,87.1634949 37.2296264,85.2342234 37.2132401,83.3049521 C37.2132401,83.3049521 37.2132401,83.3049521 37.2132401,83.3049521 C37.1804676,80.8315271 37.1640813,78.3416126 37.147695,75.8516981 C37.147695,75.8516981 37.147695,75.8516981 37.147695,75.8516981 C37.147695,75.2250973 37.147695,74.6149858 37.147695,73.9883848 L37.147695,73.9883848 C37.147695,73.4112522 37.147695,72.8341198 37.147695,72.2569873 C37.1640813,66.9143894 37.2460126,61.6707286 37.3607166,56.8063262 C37.6065108,46.0221933 37.9997814,37.0354162 38.2128032,32.7151672 L38.2128032,32.7151672 C38.2947345,30.9343013 38.3602796,29.9614208 38.3602796,29.9614208 C38.3602796,29.9614208 38.3602796,29.9614208 38.3602796,29.9614208 C38.4094385,29.9614208 38.737164,30.0273788 39.2451387,30.1592947 C39.6220231,30.2582318 40.0972252,30.3736583 40.6215862,30.5385533 L40.6215862,30.5385533 C41.1131746,30.6869589 41.6375354,30.8683433 42.2110553,31.0827068 C42.2110553,31.0827068 42.2110553,31.0827068 42.2110553,31.0827068 C43.1778457,31.4619652 44.2101814,31.9236712 45.1769718,32.5172933 C45.193358,32.5172933 45.2097443,32.5337828 45.2261306,32.5337828 C46.8155997,33.5231527 48.2575923,34.8423127 48.9130435,36.5737102 C49.470177,38.0577651 50.7974655,45.9892144 52.3869346,56.5260047 C52.4360934,56.8228157 52.468866,57.1361162 52.5180249,57.4329272 C53.3537251,63.0228675 54.2713567,69.3053668 55.172602,75.7197821 C56.1393926,82.513456 57.106183,89.4555354 57.9910421,95.8864403 C58.7448109,101.377444 59.449421,106.522167 60.039327,110.875395 Z" fill="#D34A6D"></path>
                    <path d="M54.0747213,110.875395 L29.2986672,110.875395 C28.8234652,108.814208 28.3810356,106.835468 27.9877649,104.972155 C26.9062705,99.8439202 26.1852742,95.6390977 26.2180467,93.3800362 C26.234433,92.3247084 26.6277037,91.5002334 27.3159274,90.8571428 C27.7911296,90.4284158 28.3810356,90.0656469 29.0856456,89.8018149 C31.1830894,89.0103189 34.1817784,88.8784029 37.3279441,89.0762769 C38.3930521,89.1422349 39.4745465,89.2411719 40.5396547,89.3730879 C46.422329,90.0986258 51.8953462,91.5661914 51.8953462,91.5661914 C51.8953462,91.5661914 52.2558444,93.0502463 52.698274,95.6555872 C53.0259994,97.6013483 53.3864976,100.1902 53.6486781,103.224267 C53.812541,104.988644 53.9272448,106.917915 54.0091763,108.979103 C54.0255626,109.589214 54.0583351,110.232305 54.0747213,110.875395 Z" fill="#8C3850"></path>
                    <path d="M42.6370985,93.4130153 L42.3913044,95.2103708 L41.1951059,103.949806 L40.9984706,105.45035 L40.261088,110.875395 L14.4199257,110.875395 C14.2232904,107.297174 14.026655,103.8014 13.9938825,100.750843 C13.9938825,100.421053 13.9938825,100.074773 13.9938825,99.7614726 C13.9938825,95.1773917 14.3871531,91.7805549 15.6980555,90.9231008 C17.1728206,89.9502203 22.0887043,90.2140524 27.3159274,90.8571428 C27.8402884,90.9231008 28.3646493,90.9890588 28.8890103,91.0550168 C31.9368582,91.4672543 34.9847062,91.9784289 37.442648,92.4071559 C38.7207777,92.6380088 39.8186584,92.8358828 40.6871312,93.0172674 C41.899716,93.2646098 42.6370985,93.4130153 42.6370985,93.4130153 Z" fill="#C65447"></path>
                    <path d="M13.9938825,34.4465648 C13.9938825,34.4465648 28.1844002,25.212445 38.3438933,29.9449312 C39.966135,30.7034482 41.8177845,32.7976148 43.1450732,34.2651802 C46.8155997,38.3380866 54.0091763,103.108841 54.0091763,103.108841 C54.0091763,103.108841 33.6082587,110.06741 13.9938825,100.750843 L13.9938825,34.4465648 L13.9938825,34.4465648 Z" fill="#FFFFFF"></path>
                    <path d="M39.1632074,29.7140783 C39.1632074,29.7140783 53.5175879,35.6338086 55.4675551,40.1849106 C57.4175224,44.7360124 63.7262399,72.6692248 63.7262399,75.9506352 C63.7262399,79.2320456 52.7146603,76.6761731 50.9449421,71.3995334 C49.470177,67.0133265 44.5051343,53.5249158 41.899716,44.9998444 L39.1632074,29.7140783 Z" fill="#D34A6D"></path>
                    <g transform="translate(18.680358, 0.000000)">
                        <path d="M17.5005462,34.2157117 C14.3707669,34.8423127 9.76622242,34.1827326 6.3906489,31.9401607 C7.91457286,28.2794919 8.53725148,25.3938294 8.76665937,23.5305159 C8.78304565,23.431579 8.78304565,23.3326419 8.79943194,23.2337049 C8.8977496,22.2608245 8.88136334,21.6012444 8.8322045,21.3044336 L16.9434127,21.3044336 C16.9434127,21.3044336 19.1555604,22.3267825 19.1555604,23.0358309 C19.1555604,23.4150895 19.1555604,23.7778585 19.1719467,24.1241379 C19.1883329,25.0640395 19.2211054,25.8885144 19.2702644,26.5810734 C19.4177408,28.8731138 19.6799213,29.9449312 19.6799213,29.9449312 C19.6799213,29.9449312 20.663098,33.5891107 17.5005462,34.2157117 Z" fill="#FFB27D"></path>
                        <path d="M19.2538781,26.5810734 C13.1090234,27.7683173 9.55320078,24.4044594 8.75027309,23.5305159 C8.63556914,23.3985999 8.5864103,23.3326419 8.5864103,23.3326419 C8.65195542,23.2996629 8.71750055,23.266684 8.78304565,23.2337049 C11.0607385,22.310293 16.255189,23.0358309 19.1555604,24.1076485 C19.1719467,25.0475499 19.2047192,25.8720249 19.2538781,26.5810734 Z" fill="#E2915A"></path>
                        <path d="M6.75114704,19.968784 C7.84902773,25.9050038 15.4686476,25.7071298 18.7622897,25.344361 C19.6963076,25.2454239 20.2698274,25.1135079 20.2698274,25.1135079 C21.3185493,24.8331864 21.892069,23.1842364 22.1706358,21.0076225 C22.711383,16.7203527 22.0231593,10.4213638 21.302163,8.80539279 C20.2206686,6.38143634 18.1723837,3.75960592 10.503605,5.65589836 C2.8348263,7.55219082 5.34192703,12.3506352 6.75114704,19.968784 Z" fill="#FFB27D"></path>
                        <path d="M21.5971161,5.49100338 C20.5483942,4.0234379 18.3198601,2.24257194 16.3043478,1.13777547 C11.9619838,-1.22022297 6.40703518,1.22022297 6.3906489,1.22022297 C0.131090234,3.99045891 -1.50753769,8.8218823 1.80249072,16.3410941 C5.30915447,24.2890329 8.66834171,23.3985999 8.66834171,23.3985999 C8.66834171,23.3985999 7.9637317,22.9533835 8.02927681,20.4799586 C8.02927681,20.331553 8.04566309,20.2161266 8.04566309,20.1171895 C8.07843565,19.606015 7.89818658,19.0948406 7.52130215,18.7650506 C6.73476076,18.0724916 6.35787634,15.9453461 7.0133275,15.3682136 C7.79986891,14.6591652 8.8977496,15.5166191 9.25824775,16.1761991 C9.56958706,16.6379051 10.1267205,16.8028 10.6346952,16.4894996 C12.5846624,15.2527871 11.3229189,12.7628727 13.1745685,11.2458387 C15.0426043,9.72880477 18.8278348,10.9984962 21.6135023,9.79476278 C25.2676426,8.4096448 22.3836574,6.59579984 21.5971161,5.49100338 Z" fill="#233862"></path>
                    </g>
                    <path d="M41.2770373,110.875395 L10.4052873,110.875395 C10.6183089,104.428001 10.913262,96.7438942 11.208215,88.9443609 C11.2901464,86.932642 11.3720778,84.9044335 11.4376229,82.8927146 C11.4703954,82.0352605 11.503168,81.194296 11.5359406,80.3533317 C12.2241643,63.0558464 12.8960017,47.4238009 13.0434783,46.5828364 C13.3712038,44.686544 13.6661569,43.0540835 14.0102687,41.652476 C14.9770592,37.5465906 16.1896439,35.3040187 18.8114485,33.3747472 C19.0736291,33.1768732 21.1710727,32.1050558 23.0227222,31.1816437 C24.53026,30.4231267 25.8903211,29.7635468 25.9230936,29.7470573 L25.9230936,29.7470573 L25.9230936,29.7470573 C26.234433,29.8954628 26.5621586,30.3241898 26.9226567,30.9672802 C27.2831549,31.6103707 27.6600393,32.4513353 28.0369237,33.4407052 C29.4461437,37.0848846 30.9700676,42.6748249 32.0351758,46.8466683 C32.0351758,46.8466683 32.0351758,46.8631579 32.0351758,46.8631579 C32.0351758,46.8631579 32.0351758,46.8631579 32.0351758,46.8631579 C32.0351758,46.8631579 32.0351758,46.8631579 32.0351758,46.8631579 C32.7233996,49.5509464 33.214988,51.6451127 33.3460783,52.2552242 C33.5754861,53.2775732 33.8868255,55.2398237 34.2637099,57.8946331 L34.2637099,57.8946331 C34.7552981,61.5223231 35.3615906,66.4526835 35.9842691,72.0426238 L35.9842691,72.0426238 C36.0498143,72.6197563 36.1153594,73.1968887 36.1809045,73.7905108 C36.2628359,74.4665803 36.328381,75.1426498 36.4103125,75.8187192 L36.4103125,75.8187192 C36.4266987,76.0330827 36.4594713,76.2639356 36.4758575,76.4782991 L36.4758575,76.4782991 C36.7216517,78.6878921 36.967446,80.9799327 37.2132401,83.3049521 C37.2132401,83.3049521 37.2132401,83.3049521 37.2132401,83.3049521 C37.4262617,85.2177341 40.3102468,86.6028519 40.5068822,88.5486129 C40.5232684,88.6970184 40.5396547,88.97734 40.556041,89.3730879 C40.5888137,90.1975629 40.6379725,91.5002334 40.6871312,93.0172674 C40.7035175,93.6933368 40.73629,94.4023852 40.7526765,95.1279233 C40.8673803,98.3763546 40.9984706,101.921597 41.1623334,103.636505 C41.1623334,103.718953 41.1787197,103.81789 41.1787197,103.949806 C41.1951059,104.296085 41.2114922,104.79077 41.2278785,105.417371 C41.260651,106.76951 41.2770373,108.682292 41.2770373,110.875395 Z" fill="#D34A6D"></path>
                    <path d="M20.2206686,53.5414053 C20.2042823,53.5743842 19.7290801,71.0367643 32.7725584,73.1474203 C45.8160367,75.2745657 37.147695,75.8352088 37.147695,75.8352088 C37.147695,75.8352088 12.6010487,74.7798807 12.1913917,74.1367903 C11.7817348,73.4772102 20.2206686,53.5414053 20.2206686,53.5414053 Z" fill="#8C3850"></path>
                    <path d="M31.2322482,80.6501425 C31.2322482,80.6501425 30.9864541,80.8315271 30.5112519,81.128338 C30.5112519,81.128338 30.4948656,81.1448276 30.4948656,81.1448276 C28.5121259,82.4310085 22.596679,85.9102931 13.9938825,88.2518019 C13.0926371,88.4991445 12.1586192,88.7299974 11.1918287,88.9443609 C11.2737601,86.932642 11.3393052,84.9044335 11.4212366,82.8927146 C10.2905834,82.8102671 9.19270264,82.6618616 8.1931396,82.447498 C8.22591216,82.1836661 8.25868472,81.9198341 8.29145728,81.6560021 C9.38933799,81.2107856 10.4708324,80.7655691 11.5195543,80.3533317 C12.3716408,80.0235417 13.207341,79.6937516 13.9774962,79.3969407 C17.5169325,78.0448016 20.1223508,77.1378792 20.1223508,77.1378792 L30.576797,80.4687581 L31.2322482,80.6501425 Z" fill="#8C3850"></path>
                    <path d="M34.0015293,80.3533317 C34.0015293,80.3533317 32.6578545,80.6831216 30.5112519,81.128338 C30.5112519,81.128338 30.4948656,81.128338 30.4948656,81.128338 C26.5457723,81.9198341 19.9257155,83.04112 13.9938825,82.9916515 C13.1254096,82.975162 12.2569368,82.9421831 11.4376229,82.8762251 C10.3069696,82.7937775 9.20908892,82.645372 8.20952588,82.4310085 C6.04653703,81.9693026 4.22766004,81.194296 3.04784794,79.9740731 C-5.76797028,70.9378273 7.84902773,38.5194711 10.7166266,35.3699766 C14.0594276,31.6928183 20.1551235,30.3901478 23.5306969,29.9449312 C23.6781734,29.9284419 23.8092637,29.9119523 23.940354,29.8954628 C25.120166,29.7470573 25.8903211,29.7305679 25.9230936,29.7305679 C25.9230936,29.7305679 25.9230936,29.7305679 25.9230936,29.7305679 C25.9230936,29.7305679 25.6609132,30.5880218 25.2184838,32.0390978 C25.054621,32.5997408 24.8415992,33.2428312 24.6285776,33.9848586 C22.5639065,40.8115116 18.5656544,54.2174748 16.8123225,61.7696655 C16.1732576,64.5399015 15.8291457,66.5186414 15.9766222,67.1122634 C16.6648459,69.7011148 23.7764912,71.0202748 28.2991043,71.6138967 C30.1835263,71.8612393 31.6091326,71.9766658 31.920472,71.9931553 C31.9368582,71.9931553 31.9696307,71.9931553 31.986017,71.9931553 L32.2481974,73.0649727 L32.8708761,75.6538242 L33.4771684,78.1932071 L34.0015293,80.3533317 Z" fill="#D34A6D"></path>
                    <polygon fill="#F99746" points="58.5809481 95.9029297 28.3154905 94.6167487 34.4603452 56.6579207 64.7258028 57.9441016"></polygon>
                    <path d="M31.986017,71.9931553 C31.986017,71.9931553 37.8850776,71.5809178 38.1800305,72.9660358 C38.8682543,76.1814883 33.1166702,78.8362977 31.2486345,78.6549132 C29.3805987,78.4570391 30.6259559,71.7623023 31.986017,71.9931553 Z" fill="#FFB27D"></path>
                    <path d="M63.0707887,65.644698 C63.0707887,65.644698 57.4339086,63.863832 56.8276164,65.150013 C55.4183963,68.118123 60.3998251,72.0426238 62.2678611,72.2899664 C64.1195106,72.5537983 64.4308499,65.7601245 63.0707887,65.644698 Z" fill="#FFB27D"></path>
                    <path d="M26.5293861,27.8177858 C26.5293861,27.8177858 24.0550579,29.0050298 22.8097006,30.8023853 C22.8097006,30.8023853 32.0679483,46.9950739 32.0354349,46.830179 C31.986017,46.698263 28.9053965,29.8954628 26.5293861,27.8177858 Z" fill="#8C3850"></path>
                    <path d="M38.0653267,28.0486388 C38.8846405,28.3619394 40.4413371,29.9779103 40.8018353,30.8683433 L41.899716,44.9998444 C41.899716,44.9998444 39.5400918,34.6279492 38.3438933,29.9449312 C38.0489404,28.7576874 38.1144854,28.3949183 38.0653267,28.0486388 Z" fill="#8C3850"></path>
                    <path d="M44.488748,57.0866477 C44.488748,57.0866477 44.7345423,56.0313197 46.1109897,56.1632356 C47.4874372,56.2786622 55.221761,56.6744102 55.221761,56.6744102 C55.221761,56.6744102 56.7129124,56.6579207 56.5818221,57.6143116 L44.488748,57.0866477 Z" fill="#C65447"></path>
                    <path d="M35.6073847,21.3044336 C35.6073847,21.3044336 36.6069478,22.2278454 38.2291895,21.9475239 C39.1959799,21.782629 39.7203408,20.5129375 39.7203408,20.5129375 C39.7203408,20.5129375 37.8850776,20.1831475 35.6073847,21.3044336 Z" fill="#FFFFFF"></path>
                </g>
                <g transform="translate(118.800525, 28.691729)">
                    <g transform="translate(82.422985, 0.000000)">
                        <polygon fill="#FFFFFF" points="29.7410968 28.0156599 7.37382564 28.0981073 0.131090234 0.164894996 22.481975 0.082447498"></polygon>
                        <g transform="translate(6.226785, 1.637522)" fill="#4AD3B0">
                            <polygon points="10.7166266 2.12208335 1.3436749 2.15506235 1.22897094 1.74282486 10.6019227 1.69335636"></polygon>
                            <polygon points="12.207778 3.25985882 0.442429539 3.30932732 0.344111863 2.89708983 12.1094603 2.84762133"></polygon>
                            <g transform="translate(0.000000, 6.760695)">
                                <polygon points="15.4522613 2.18804135 0.163862792 2.23750985 0.0491588376 1.82527235 15.3375573 1.77580386"></polygon>
                                <polygon points="15.7963732 3.54018031 0.507974655 3.60613832 0.409656981 3.19390082 15.6980555 3.12794282"></polygon>
                                <polygon points="16.1568713 4.90880878 0.868472799 4.95827728 0.753768843 4.54603979 16.0421673 4.4965713"></polygon>
                                <polygon points="16.5009832 6.27743725 1.22897094 6.32690575 1.11426699 5.91466825 16.4026655 5.86519977"></polygon>
                                <polygon points="16.8614813 7.62957622 1.5730828 7.69553422 1.47476513 7.28329672 16.7467774 7.21733873"></polygon>
                            </g>
                            <g transform="translate(2.294079, 15.500129)">
                                <polygon points="15.4194887 2.20453085 0.147476513 2.27048884 0.0327725584 1.84176185 15.3211711 1.79229336"></polygon>
                                <polygon points="15.7799869 3.57315931 0.491588376 3.62262781 0.393270702 3.21039032 15.6816692 3.16092182"></polygon>
                                <polygon points="16.140485 4.92529828 0.85208652 4.99125628 0.737382564 4.57901878 16.0257811 4.51306079"></polygon>
                                <polygon points="16.4845969 6.29392675 1.19619838 6.34339525 1.09788071 5.93115776 16.3862792 5.88168926"></polygon>
                                <polygon points="16.845095 7.64606571 1.55669653 7.71202372 1.44199257 7.29978623 16.7303911 7.23382822"></polygon>
                            </g>
                        </g>
                    </g>
                    <g transform="translate(91.435439, 34.792844)">
                        <polygon fill="#FFFFFF" points="29.7247106 27.9167228 7.37382564 27.9991704 0.131090234 0.082447498 22.481975 0"></polygon>
                        <g transform="translate(6.226785, 1.472627)" fill="#4AD3B0">
                            <polygon points="10.7166266 2.18804135 1.3436749 2.22102035 1.22897094 1.80878285 10.6019227 1.77580386"></polygon>
                            <polygon points="12.207778 3.34230632 0.442429539 3.37528531 0.327725584 2.96304783 12.0930741 2.93006883"></polygon>
                            <g transform="translate(0.000000, 6.925590)">
                                <polygon points="15.435875 2.08910435 0.163862792 2.15506235 0.0491588376 1.74282486 15.3375573 1.67686686"></polygon>
                                <polygon points="15.7963732 3.45773281 0.507974655 3.50720131 0.409656981 3.09496382 15.6816692 3.04549533"></polygon>
                                <polygon points="16.1568713 4.82636128 0.868472799 4.87582978 0.753768843 4.46359229 16.0421673 4.39763429"></polygon>
                                <polygon points="16.5009832 6.17850026 1.21258466 6.24445825 1.11426699 5.81573126 16.4026655 5.76626276"></polygon>
                                <polygon points="16.8614813 7.54712872 1.5730828 7.59659721 1.45837885 7.18435973 16.7467774 7.13489123"></polygon>
                            </g>
                            <g transform="translate(2.294079, 15.665024)">
                                <polygon points="15.4194887 2.12208335 0.131090234 2.17155185 0.0327725584 1.75931436 15.3211711 1.70984586"></polygon>
                                <polygon points="15.7799869 3.47422232 0.491588376 3.54018031 0.376884422 3.12794282 15.6652829 3.06198483"></polygon>
                                <polygon points="16.1240987 4.84285078 0.85208652 4.89231929 0.737382564 4.48008179 16.0257811 4.43061329"></polygon>
                                <polygon points="16.4845969 6.19498975 1.19619838 6.26094776 1.09788071 5.84871026 16.3698929 5.78275227"></polygon>
                                <polygon points="16.8287087 7.56361821 1.55669653 7.61308672 1.44199257 7.20084922 16.7303911 7.15138074"></polygon>
                            </g>
                        </g>
                    </g>
                    <g transform="translate(100.611755, 69.585688)">
                        <polygon fill="#FFFFFF" points="29.6263928 28.0651284 7.27550797 28.1475759 0.0163862792 0.214363495 22.3672712 0.131915997"></polygon>
                        <g transform="translate(6.062923, 1.637522)" fill="#4AD3B0">
                            <polygon points="10.7657854 2.17155185 1.39283373 2.20453085 1.27812978 1.79229336 10.6674678 1.75931436"></polygon>
                            <polygon points="12.2569368 3.30932732 0.491588376 3.35879582 0.393270702 2.94655833 12.1586192 2.89708983"></polygon>
                            <g transform="translate(0.000000, 6.925590)">
                                <polygon points="15.5014201 2.07261485 0.21302163 2.13857285 0.0983176752 1.70984586 15.3867162 1.66037736"></polygon>
                                <polygon points="15.845532 3.44124332 0.573519772 3.49071182 0.458815818 3.07847433 15.7472143 3.02900583"></polygon>
                                <polygon points="16.2060301 4.79338228 0.917631636 4.85934029 0.81931396 4.4471028 16.0913262 4.38114479"></polygon>
                                <polygon points="16.5665283 6.16201075 1.27812978 6.21147925 1.16342582 5.79924176 16.4518243 5.74977326"></polygon>
                                <polygon points="16.9106402 7.51414973 1.62224164 7.58010772 1.52392397 7.16787023 16.8123225 7.10191223"></polygon>
                            </g>
                            <g transform="translate(2.294079, 15.665024)">
                                <polygon points="15.4850339 2.08910435 0.196635351 2.15506235 0.081931396 1.74282486 15.3703299 1.67686686"></polygon>
                                <polygon points="15.8291457 3.45773281 0.540747213 3.50720131 0.442429539 3.09496382 15.730828 3.04549533"></polygon>
                                <polygon points="16.1896439 4.82636128 0.901245357 4.87582978 0.786541402 4.46359229 16.0749399 4.39763429"></polygon>
                                <polygon points="16.5337557 6.17850026 1.2617435 6.24445825 1.14703954 5.81573126 16.4354381 5.76626276"></polygon>
                                <polygon points="16.8942539 7.54712872 1.60585536 7.59659721 1.50753769 7.18435973 16.7795499 7.13489123"></polygon>
                            </g>
                        </g>
                    </g>
                    <g transform="translate(0.000000, 0.164895)">
                        <g>
                            <polygon fill="#FFFFFF" points="100.841162 97.7167747 22.6622241 98.0135858 0.147476513 11.3282862 10.3397422 0.280321493 75.4915883 0.0494684988"></polygon>
                            <polygon fill="#4AD3B0" points="53.9436312 14.6921442 26.3982958 14.7910811 26.0869564 13.5873477 53.6322919 13.4719212"></polygon>
                            <polygon fill="#4AD3B0" points="58.3515403 18.0724916 23.7601049 18.187918 23.4323793 16.9841846 58.0402009 16.8522686"></polygon>
                            <g transform="translate(22.613066, 31.813307)" fill="#4AD3B0">
                                <polygon points="45.2425168 2.96304783 0.311339304 3.12794282 0 1.90771985 44.9311776 1.74282486"></polygon>
                                <polygon points="46.2912387 6.96999623 1.36006117 7.13489123 1.03233559 5.91466825 45.9798994 5.74977326"></polygon>
                                <polygon points="47.3235744 10.9604551 2.39239676 11.1418396 2.08105746 9.92161667 47.012235 9.75672167"></polygon>
                                <polygon points="48.3722963 14.9674035 3.42473236 15.1322985 3.11339304 13.9285651 48.0445707 13.7636701"></polygon>
                                <polygon points="49.4046317 18.974352 4.47345423 19.139247 4.16211491 17.919024 49.0932926 17.754129"></polygon>
                            </g>
                            <g transform="translate(29.167577, 57.536925)" fill="#4AD3B0">
                                <polygon points="45.3736071 2.99602683 0.442429539 3.16092182 0.131090234 1.94069885 45.0622678 1.77580386"></polygon>
                                <polygon points="46.422329 6.98648574 1.47476513 7.16787023 1.16342582 5.94764725 46.1109897 5.78275227"></polygon>
                                <polygon points="47.4546646 10.9934341 2.523487 11.1583291 2.21214769 9.95459566 47.1433253 9.78970067"></polygon>
                                <polygon points="48.5033864 15.0003825 3.55582259 15.1652775 3.24448329 13.9450546 48.1756609 13.7801596"></polygon>
                                <polygon points="49.535722 19.0073309 4.60454446 19.1722259 4.27681888 17.952003 49.2243827 17.787108"></polygon>
                            </g>
                        </g>
                        <polygon fill="#4AD3B0" points="0.147476513 11.3282862 13.1909548 11.2788177 10.3397422 0.280321493"></polygon>
                    </g>
                </g>
            </g>
            <g transform="translate(305.393775, 323.881773)">
                <g transform="translate(0.000000, 25.723619)">
                    <g>
                        <path d="M67.2165173,22.73902 L3.57220887,22.73902 L3.57220887,0.115426497 L67.4295389,0.115426497 C72.3945816,0.115426497 76.4256062,4.1718434 76.4256062,9.16816178 L76.4256062,13.4884107 C76.40922,18.6001555 72.2962638,22.73902 67.2165173,22.73902 Z" fill="#FCECDB"></path>
                        <path d="M130.729736,9.43199378 L130.729736,12.8288307 C130.729736,14.6426757 130.238147,16.3575836 129.386061,17.8086596 C127.681888,20.7602801 124.502949,22.73902 120.865195,22.73902 L1.58946908,22.73902 C0.802927681,22.73902 0.163862792,22.0959295 0.163862792,21.3044336 L0.163862792,20.793259 C0.163862792,20.0017631 0.802927681,19.3586725 1.58946908,19.3586725 L74.2953899,19.3586725 C74.6886606,18.880477 75.0327725,18.3693026 75.3113393,17.8086596 C75.999563,16.5224786 76.3764474,15.0384236 76.3764474,13.4884107 L76.3764474,9.16816178 C76.3764474,8.37666581 76.2781297,7.60165932 76.0814944,6.85963185 C75.7537687,5.60642987 75.180249,4.4686544 74.3937077,3.49577392 L1.5730828,3.49577392 C0.786541402,3.49577392 0.147476513,2.85268343 0.147476513,2.06118746 L0.147476513,1.55001296 C0.147476513,0.758516981 0.786541402,0.115426497 1.5730828,0.115426497 L121.438715,0.115426497 C125.666375,0.115426497 129.222198,2.96810993 130.336465,6.85963185 C130.615032,7.68410682 130.729736,8.5415608 130.729736,9.43199378 Z" fill="#4AD3B0"></path>
                        <path d="M130.369237,6.85963185 L76.0978806,6.85963185 C75.770155,5.60642987 75.1966353,4.4686544 74.4100939,3.49577392 L1.58946908,3.49577392 C0.802927681,3.49577392 0.163862792,2.85268343 0.163862792,2.06118746 L0.163862792,1.55001296 C0.163862792,0.758516981 0.802927681,0.115426497 1.58946908,0.115426497 L121.455101,0.115426497 C125.715534,0.115426497 129.271357,2.96810993 130.369237,6.85963185 Z" fill="#2D806A"></path>
                    </g>
                    <polygon fill="#F4D2B8" points="3.55582259 11.4272232 12.3880271 11.8064817 3.55582259 12.0373347"></polygon>
                    <polygon fill="#F4D2B8" points="3.55582259 14.9889552 24.5794188 15.3682136 3.55582259 15.5990666"></polygon>
                </g>
                <g transform="translate(9.667904, 48.314233)">
                    <g>
                        <g>
                            <path d="M9.07799867,17.7097226 L76.8352632,17.7097226 L76.8352632,0.115426497 L8.5208652,0.115426497 C3.85077561,0.115426497 0.0491588376,3.9245009 0.0491588376,8.64049779 L0.0491588376,8.64049779 C0.0491588376,13.6368162 4.09656981,17.7097226 9.07799867,17.7097226 Z" fill="#2F3758"></path>
                            <path d="M72.9353288,17.7097226 L150.049159,17.7097226 L150.049159,0.115426497 L72.7386935,0.115426497 C67.9866724,0.115426497 64.1358968,3.99045891 64.1358968,8.77241379 L64.1358968,8.83837179 C64.1358968,13.7357532 68.0849901,17.7097226 72.9353288,17.7097226 Z" fill="#FCECDB"></path>
                            <path d="M58.9906052,17.7097226 L152.736508,17.7097226 C153.457505,17.7097226 154.047411,17.1161006 154.047411,16.3905626 L154.047411,16.3905626 C154.047411,15.6650246 153.457505,15.0714026 152.736508,15.0714026 L58.9906052,15.0714026 C58.269609,15.0714026 57.6797028,15.6650246 57.6797028,16.3905626 L57.6797028,16.3905626 C57.6797028,17.1161006 58.269609,17.7097226 58.9906052,17.7097226 Z" fill="#2F3758"></path>
                            <path d="M58.9906052,2.73725694 L152.736508,2.73725694 C153.457505,2.73725694 154.047411,2.14363495 154.047411,1.41809697 L154.047411,1.41809697 C154.047411,0.692558984 153.457505,0.0989369976 152.736508,0.0989369976 L58.9906052,0.0989369976 C58.269609,0.0989369976 57.6797028,0.692558984 57.6797028,1.41809697 L57.6797028,1.41809697 C57.6797028,2.14363495 58.269609,2.73725694 58.9906052,2.73725694 Z" fill="#2F3758"></path>
                        </g>
                        <polygon fill="#F4D2B8" points="150.049159 8.90432979 139.643871 9.20114078 150.049159 9.38252528"></polygon>
                        <polygon fill="#F4D2B8" points="150.049159 4.84791289 125.273104 5.14472388 150.049159 5.32610838"></polygon>
                    </g>
                    <g transform="translate(125.518898, 4.946850)">
                        <path d="M0.0163862792,0.148405496 C0.0163862792,0.148405496 1.08149443,0.906922479 1.42560629,2.14363495 C1.49115141,2.35799844 1.52392397,2.58885144 1.54031025,2.83619394 C1.60585536,4.4851439 1.54031025,8.22826031 1.54031025,8.22826031 L4.67008957,6.36494685 L7.79986891,8.22826031 L7.79986891,3.16598392 C7.79986891,2.20959295 7.53768843,1.26969147 7.02971378,0.659579984 C6.78391958,0.362768992 6.48896656,0.148405496 6.16124098,0.148405496 L0.0163862792,0.148405496 Z" fill="#4AD3B0"></path>
                        <path d="M0.0163862792,0.148405496 C0.0163862792,0.148405496 1.08149443,0.906922479 1.42560629,2.14363495 L7.70155122,2.20959295 C7.70155122,2.20959295 7.45575705,0.428726989 6.16124098,0.131915997 L0.0163862792,0.131915997 L0.0163862792,0.148405496 Z" fill="#2D806A"></path>
                    </g>
                </g>
                <g transform="translate(6.718375, 0.000000)">
                    <g>
                        <g>
                            <path d="M68.0030587,25.8885144 L137.235088,25.8885144 L137.235088,0.0329789992 L67.7736508,0.0329789992 C62.2350884,0.0329789992 57.7288617,4.55110189 57.7288617,10.1410423 L57.7288617,15.5660876 C57.745248,21.2714545 62.3334061,25.8885144 68.0030587,25.8885144 Z" fill="#FCECDB"></path>
                            <path d="M59.3674896,10.0750843 L59.3674896,15.6320456 C59.3838759,18.0065336 60.6947782,20.0677211 62.6119729,21.1725176 C63.5623771,21.716671 64.6438715,22.0299715 65.8072973,22.0299715 L140.987546,22.0299715 C141.872405,22.0299715 142.577015,22.7555094 142.577015,23.629453 L142.577015,24.2890329 C142.577015,25.1794659 141.856019,25.8885144 140.987546,25.8885144 L11.1098973,25.8885144 C7.39021192,25.8885144 4.09656981,24.025201 2.09744374,21.1725176 C0.83570024,19.3751621 0.114703954,17.1820586 0.114703954,14.8240602 L0.114703954,10.4378533 C0.114703954,8.8218823 0.475202097,7.28835883 1.14703954,5.91973036 C2.81844002,2.44044594 6.35787634,0.0494684988 10.4544461,0.0494684988 L141.003933,0.0494684988 C141.888792,0.0494684988 142.593402,0.775006481 142.593402,1.64894996 L142.593402,2.30852995 C142.593402,3.19896293 141.872405,3.90801141 141.003933,3.90801141 L65.5942757,3.90801141 C63.791785,3.90801141 62.153157,4.6830179 61.0225038,5.91973036 C60.0065544,7.00803734 59.3838759,8.4591133 59.3674896,10.0750843 Z" fill="#B5453C"></path>
                        </g>
                        <polygon fill="#F4D2B8" points="137.235088 12.9607467 127.599956 13.4059632 137.235088 13.6697952"></polygon>
                        <polygon fill="#F4D2B8" points="137.235088 7.02452683 114.310684 7.45325383 137.235088 7.71708581"></polygon>
                    </g>
                    <g transform="translate(114.540091, 7.255379)">
                        <path d="M0,0.115426497 C0,0.115426497 1.50753769,0.939901477 2.01551235,2.27555094 C2.09744374,2.50640395 2.16298886,2.77023593 2.17937514,3.03406794 C2.26130653,4.83142339 2.17937514,8.8713508 2.17937514,8.8713508 L6.65282936,6.84314234 L11.1098973,8.8713508 L11.1098973,3.38034742 C11.1098973,2.34150895 10.7330129,1.33564947 10.0120166,0.676069484 C9.66790473,0.362768992 9.25824775,0.115426497 8.78304565,0.115426497 L0,0.115426497 L0,0.115426497 Z" fill="#4AD3B0"></path>
                        <path d="M0,0.115426497 C0,0.115426497 1.50753769,0.939901477 2.01551235,2.27555094 L10.9624208,2.35799844 C10.9624208,2.35799844 10.6183089,0.428726989 8.76665937,0.115426497 L0,0.115426497 Z" fill="#2D806A"></path>
                    </g>
                </g>
            </g>
            <g transform="translate(320.305289, 216.370236)">
                <path d="M61.0225038,97.9641171 C64.9879834,104.906197 69.9694122,107.577495 69.9694122,107.577495 L90.6980554,107.577495 C90.6980554,107.577495 57.9910421,92.6709879 61.0225038,97.9641171 Z" fill="#8C3850"></path>
                <g>
                    <path d="M76.9335809,151.670417 C77.4743281,152.297018 77.5398732,152.989577 77.2776928,153.731605 C77.2776928,153.731605 77.2776928,153.731605 77.2776928,153.748094 C76.7861044,155.116723 75.1474765,156.666736 73.246668,158.200259 C73.0008739,158.398133 72.7878523,158.579518 72.6076032,158.744413 C72.5584444,158.793881 72.5092854,158.82686 72.4601267,158.876329 C72.4273541,158.909308 72.3781953,158.942287 72.3454226,158.975266 C70.5757046,160.624216 71.2475419,160.986985 68.0686039,164.317864 C64.4472362,168.110448 61.9401354,168.176406 61.2355254,167.830126 C60.6292331,167.533316 61.858204,165.521597 63.2018789,163.262536 C63.267424,163.147109 63.3329692,163.048172 63.3985143,162.932746 C63.5787634,162.635935 63.7590124,162.322634 63.9392615,162.025823 C65.5287306,159.305056 65.1190735,158.018875 64.7421891,153.978947 C64.4308499,150.681047 59.6460563,135.576666 59.6460563,135.576666 L66.5938388,134.372932 C66.5938388,134.372932 68.6912824,146.393778 70.9853616,148.257091 C72.2143325,149.246461 73.5907799,149.262951 74.7869783,149.988488 C74.8689096,150.037957 74.9508411,150.087426 75.0327725,150.153384 C75.7209962,150.58211 76.3928337,151.043816 76.9335809,151.670417 Z" fill="#FFB27D"></path>
                    <path d="M76.9335809,151.670417 C77.4743281,152.297018 77.5398732,152.989577 77.2776928,153.731605 C77.2776928,153.731605 77.2776928,153.731605 77.2776928,153.748094 C76.6714004,155.116723 75.0819314,156.650246 73.246668,158.18377 C73.0008739,158.381644 72.7878523,158.563028 72.6076032,158.744413 C72.5584444,158.793881 72.5092854,158.82686 72.4601267,158.876329 C72.4273541,158.909308 72.3781953,158.942287 72.3454226,158.975266 C70.5757046,160.624216 71.2475419,160.986985 68.0686039,164.317864 C64.4472362,168.110448 61.9401354,168.176406 61.2355254,167.830126 C60.6292331,167.533316 61.858204,165.521597 63.2018789,163.262536 C63.906489,162.998704 67.1837448,161.663054 69.658073,158.464091 C71.8374481,155.660876 73.295827,152.066165 74.7869783,149.971999 C74.8689096,150.021468 74.9508411,150.070936 75.0327725,150.136894 C75.7209962,150.58211 76.3928337,151.043816 76.9335809,151.670417 Z" fill="#233862"></path>
                    <path d="M20.9252786,147.3007 C20.4992352,149.460825 17.4350012,149.098055 14.026655,148.257091 C10.6183089,147.416127 11.4212366,148.421986 6.55451169,147.877833 C1.68778675,147.333679 0.229407909,145.519834 0.0655451169,144.777807 C-0.0655451169,144.134716 2.32685165,143.903863 4.91588376,143.607052 C5.24360934,143.574073 5.57133493,143.524605 5.88267424,143.491626 C8.78304565,143.128857 10.913262,141.232564 13.5678392,139.682551 C16.0749399,138.214986 19.8110116,132.229297 19.8110116,132.229297 L26.4802273,132.756961 C26.4802273,132.756961 22.9899497,138.099559 21.6298886,140.424579 C20.8269608,141.793207 20.8761198,143.607052 20.9744374,144.99217 C21.0235962,145.767177 21.0727551,146.542183 20.9252786,147.3007 Z" fill="#FFB27D"></path>
                    <path d="M14.026655,148.257091 C10.6183089,147.416127 11.4212366,148.421986 6.55451169,147.877833 C1.68778675,147.333679 0.229407909,145.519834 0.0655451169,144.777807 C-0.0655451169,144.134716 2.32685165,143.903863 4.91588376,143.607052 L4.93227004,143.656521 C4.93227004,143.656521 7.84902773,145.734198 11.8964387,145.833135 C15.1900808,145.915582 18.6803582,144.959191 20.9580511,144.99217 C21.00721,145.750687 21.0563689,146.525694 20.9088923,147.284211 C20.4992352,149.460825 17.4350012,149.098055 14.026655,148.257091 Z" fill="#233862"></path>
                    <path d="M46.4714878,104.411512 L52.698274,121.28027 L60.8258685,143.310241 C60.8258685,143.310241 63.0380161,143.524605 65.1518462,142.914493 C67.1018133,142.35385 69.3303474,140.869795 69.3303474,140.869795 C69.3303474,140.869795 67.0690408,117.207363 62.8577671,103.636505 C61.7762726,100.157221 60.5636879,97.3375163 59.2363994,95.7380348 C52.698274,87.9714804 46.4714878,104.411512 46.4714878,104.411512 Z" fill="#8C3850"></path>
                    <path d="M52.7965916,77.6160747 C56.8767752,76.2969147 68.5274196,77.9953331 80.2108367,80.303863 L82.6523923,76.2474462 L107.920035,74.2687063 C107.920035,74.2687063 116.260651,92.8688618 111.688879,104.724812 C111.017042,106.472699 109.689753,107.577495 107.41206,107.626964 C107.41206,107.626964 107.051562,107.626964 107.035176,107.626964 C107.035176,107.626964 91.9925715,107.610474 87.1094603,107.610474 C74.5411842,107.610474 60.5145291,98.9205081 58.7120384,98.5577392 C55.7461219,97.9641171 54.5499235,103.933316 51.584007,110.215815 C48.6180904,116.498315 23.6617872,138.001585 23.6617872,138.001585 C23.6617872,138.001585 19.8273979,138.033601 18.2379288,137.439979 C16.5337557,136.796889 15.9110771,135.955924 15.9110771,135.955924 C15.9110771,135.955924 43.5875027,80.6006741 52.7965916,77.6160747 Z" fill="#D34A6D"></path>
                    <path d="M82.8162551,41.2072596 C91.8123224,46.1870884 110.066637,56.5260047 110.164955,56.4600467 C110.164955,56.4600467 116.866943,58.9994296 120.684946,56.4600467 C127.026436,52.2222453 130.434783,40.8115116 118.833297,31.0002593 C113.04894,26.102878 108.935984,24.9156339 108.313305,17.0996111 C107.969194,12.8618097 102.21761,-1.13777547 92.6316364,0.148405496 C91.8287086,0.263831993 86.9128249,0.494684988 83.6683416,2.19310344 C75.4260431,6.56282085 69.3303474,39.2779881 82.8162551,41.2072596 Z" fill="#233862"></path>
                    <path d="M90.3539435,36.9694582 C90.321171,37.0024371 94.778239,38.5359606 97.7605418,37.2003111 C100.562596,35.9471092 102.692812,31.2970703 102.660039,31.2970703 C101.381909,31.2311123 99.9726894,30.1098263 98.891195,22.73902 L98.3504478,22.936894 L89.2069041,26.2512833 C89.2069041,26.2512833 89.8623551,29.2029038 90.3047848,32.0226082 C90.6652829,34.3806068 90.8619182,36.6396682 90.3539435,36.9694582 Z" fill="#FFB27D"></path>
                    <path d="M89.2069041,26.2512833 C89.2069041,26.2512833 89.8623551,29.2029038 90.3047848,32.0226082 C95.5647804,31.0662173 97.6294515,25.8060669 98.366834,22.936894 L89.2069041,26.2512833 Z" fill="#ED975D"></path>
                    <path d="M87.8468428,29.1864142 C87.8468428,29.1864142 100.36596,27.4879958 99.2025343,19.6719731 C98.0391086,11.8394607 98.8584224,6.34845735 90.8291457,7.10697433 C82.7834825,7.84900182 81.6856018,11.0809437 81.4398077,13.7852217 C81.1940134,16.4730101 84.569587,29.4172673 87.8468428,29.1864142 Z" fill="#FFB27D"></path>
                    <path d="M81.8986234,9.48146227 C81.8986234,9.48146227 89.9115141,16.4235416 95.368145,16.9841846 C100.824776,17.5448277 102.889447,15.7804511 102.889447,15.7804511 C102.889447,15.7804511 99.6777365,13.0926627 97.7441555,8.75592429 C97.1706357,7.48623282 95.9744373,6.59579984 94.5816035,6.48037335 C90.6816692,6.15058335 83.2914572,6.00217786 81.8986234,9.48146227 Z" fill="#233862"></path>
                    <path d="M86.8964387,8.85486129 C86.8964387,8.85486129 84.2090888,11.4602022 83.3733885,13.4059632 C82.5540747,15.2692766 82.3082805,19.7379311 82.9637316,21.5187971 C82.9637316,21.5187971 78.7852304,13.3400052 81.1448546,9.38252528 C83.6683416,5.14472388 86.8964387,8.85486129 86.8964387,8.85486129 Z" fill="#233862"></path>
                    <path d="M79.8175661,55.5201453 C80.1944505,81.0129116 79.9158837,75.6868032 82.685165,78.1107596 C83.3570023,78.6878921 85.2250382,79.0341716 87.6993663,79.1990667 C95.4664626,79.7102411 109.13262,78.4240602 109.640594,76.9894737 C111.426699,71.9931553 110.164955,70.4431424 111.656107,62.7755251 C111.819969,61.9675395 112.000218,61.0771065 112.229626,60.1207155 C113.474984,54.8605652 114.687568,53.0796992 110.263273,44.620586 C106.248634,36.9694582 102.086519,30.7529168 101.709635,30.9837697 C91.1240986,37.2992481 90.2720122,31.9896293 90.2720122,31.9896293 C90.2720122,31.9896293 79.637317,43.0870624 79.8175661,55.5201453 Z" fill="#FFFFFF"></path>
                    <path d="M52.698274,121.28027 L60.8258685,143.310241 C60.8258685,143.310241 63.0380161,143.524605 65.1518462,142.914493 C67.1018133,142.35385 69.3303474,140.869795 69.3303474,140.869795 C69.3303474,140.869795 67.0690408,117.207363 62.8577671,103.636505 L52.698274,121.28027 Z" fill="#D34A6D"></path>
                    <path d="M90.3047848,32.0061187 C90.3047848,32.0061187 79.4079091,33.8694322 78.1297792,38.5854291 C76.8516494,43.3014259 69.3303474,71.0367643 69.3303474,71.0367643 C69.3303474,71.0367643 74.8689096,72.0426238 77.4251693,69.4702619 C79.9814289,66.8978999 86.3229189,45.5934665 86.3229189,45.5934665 L90.3047848,32.0061187 Z" fill="#FFFFFF"></path>
                    <path d="M87.7157525,79.2155561 C95.4828489,79.7267306 109.149006,78.4405497 109.65698,77.0059632 C111.443085,72.0096449 110.181341,70.4596318 111.672493,62.7920145 L107.920035,52.1727768 C107.920035,52.1727768 108.542714,63.995748 105.068822,67.1122634 C101.611317,70.2287789 90.8783045,73.1144414 89.1905178,75.7197821 C88.4039763,76.9564946 87.8632291,78.2096966 87.7157525,79.2155561 Z" fill="#EBF3FF"></path>
                    <path d="M96.6135023,74.2357272 C96.6135023,74.2357272 88.9447235,72.5208193 87.7157525,73.1968887 C86.4867817,73.8894477 83.45532,76.3793622 83.0784356,77.2368161 C82.7015512,78.1107596 85.8313305,76.5772362 86.8472799,76.2969147 C87.5027309,76.1155303 89.2396766,76.7256417 90.1081494,77.0224526 C93.7295171,78.2426757 95.9416648,77.6160747 95.9416648,77.6160747 L96.6135023,74.2357272 Z" fill="#FFB27D"></path>
                    <path d="M101.742408,31.0002593 C101.742408,31.0002593 112.032991,31.6433498 115.6052,36.6396682 C120.619401,43.6806845 130.565873,73.6750842 124.863448,77.6820327 C118.440026,82.1836661 95.6303254,78.8527872 95.6303254,78.8527872 C95.6303254,78.8527872 94.8765566,75.2910553 95.9252785,73.5596578 C96.9740004,71.8282603 114.146821,69.0415349 114.933362,68.250039 C115.719904,67.4585429 105.03605,52.7169303 105.03605,50.3259529 C105.052436,47.9349753 101.742408,31.0002593 101.742408,31.0002593 Z" fill="#FFFFFF"></path>
                    <path d="M87.3388681,75.3570133 C87.3388681,75.3570133 85.7330129,77.4346901 85.208652,77.6985222 C84.684291,77.9458647 84.3401791,77.8799067 84.3401791,77.8799067 L85.4216736,75.9176563 L87.3388681,75.3570133 Z" fill="#FFB27D"></path>
                    <path d="M87.7157525,73.2133783 L83.0456631,75.4889293 C83.0456631,75.4889293 83.2422984,75.8187192 83.8158182,75.7857401 C84.3893379,75.7527612 85.8477168,75.2250973 85.8477168,75.2250973 L87.7157525,73.2133783 Z" fill="#FFB27D"></path>
                </g>
                <g transform="translate(37.032990, 52.931294)">
                    <g>
                        <polygon fill="#4AD3B0" points="48.1756609 27.9497019 11.2409875 27.9497019 0.131090234 0.148405496 37.0002185 0.148405496"></polygon>
                        <polygon fill="#2D806A" points="10.798558 26.8613948 59.5805112 26.8613948 59.5805112 27.9497019 11.2409875 27.9497019"></polygon>
                    </g>
                    <path d="M20.5647804,14.0490537 C20.2862136,13.0761732 20.8433471,12.2846772 21.8265239,12.2846772 C22.8097006,12.2846772 23.8092637,13.0761732 24.0878304,14.0490537 C24.3663972,15.0219342 23.8092637,15.8134301 22.8260869,15.8134301 C21.8592965,15.8134301 20.8433471,15.0219342 20.5647804,14.0490537 Z" fill="#FFFFFF"></path>
                </g>
            </g>
            <g transform="translate(61.402078, 297.663469)" fill="#4AD3B0">
                <path d="M8.42254751,10.5038113 L7.63600612,11.0479647 C6.80030587,11.6415867 5.63688005,11.4272232 5.06336027,10.5697692 L0.491588376,3.9245009 C-0.0983176752,3.08353642 0.114703954,1.91278195 0.966790473,1.33564947 L2.09744374,0.544153488 C2.26130653,0.428726989 2.49071444,0.478195488 2.60541839,0.643090485 C2.72012236,0.807985481 2.67096351,1.03883848 2.50710072,1.15426497 L1.37644745,1.94576096 C0.868472799,2.30852995 0.737382564,3.01757843 1.09788071,3.52875291 L5.66965261,10.1740213 C6.03015075,10.6851957 6.73476076,10.8171117 7.24273541,10.4543428 L8.02927681,9.91018927 C8.53725148,9.54742028 8.66834171,8.83837179 8.30784356,8.3271973 L5.2763819,3.9245009 C5.16167796,3.75960592 5.21083678,3.52875291 5.37469957,3.41332642 C5.53856238,3.29789992 5.76797028,3.34736842 5.88267424,3.51226342 L8.91413588,7.91495981 C9.47126938,8.75592429 9.25824775,9.92667876 8.42254751,10.5038113 Z"></path>
                <path d="M13.436749,17.0666322 L12.0275289,18.0560021 C10.7166266,18.9629246 8.86497706,18.5671766 7.8818003,17.1490795 L0.999563031,7.15644283 C0.884859078,6.99154783 0.934017915,6.76069484 1.09788071,6.64526835 C1.2617435,6.52984185 1.49115141,6.57931034 1.60585536,6.74420533 L8.48809263,16.736842 C9.2254752,17.8251492 10.6346952,18.1384496 11.617872,17.4623801 L13.027092,16.4730101 C14.0102687,15.7969406 14.2069041,14.3458647 13.4531352,13.2740472 L5.62049377,1.89629246 C4.8831112,0.807985481 3.47389119,0.494684988 2.49071444,1.17075447 C2.32685165,1.28618097 2.09744374,1.23671247 1.98273979,1.07181748 C1.86803582,0.906922479 1.91719467,0.676069484 2.08105746,0.560642987 C3.3919598,-0.346279492 5.24360934,0.0494684988 6.22678611,1.46756546 L14.0594276,12.8453202 C15.026218,14.2469277 14.7476513,16.1432201 13.436749,17.0666322 Z"></path>
            </g>
            <g transform="translate(66.973413, 360.983148)" fill="#4AD3B0">
                <path d="M17.3366834,5.90324086 L17.5005462,7.30484832 C17.6807953,8.80539279 16.6156871,10.1740213 15.1245357,10.3554058 L3.3919598,11.7899922 C1.90080838,11.9713767 0.540747213,10.8995592 0.360498143,9.39901477 L0.114703954,7.38729582 C0.081931396,7.09048484 0.294953025,6.82665283 0.573519772,6.79367384 C0.868472799,6.76069484 1.13065327,6.97505834 1.16342582,7.25537983 L1.40922001,9.26709879 C1.52392397,10.1740213 2.34323793,10.8336012 3.26086955,10.7181748 L14.9934455,9.28358828 C15.8946908,9.16816178 16.550142,8.34368681 16.4354381,7.42027483 L16.2715753,6.01866735 C16.1568713,5.11174488 15.3375573,4.45216489 14.4199257,4.56759138 L6.63644307,5.52398237 C6.34149005,5.55696137 6.07930958,5.34259787 6.04653703,5.06227638 C6.01376447,4.76546539 6.22678611,4.50163339 6.50535285,4.4686544 L14.2888355,3.51226342 C15.7963732,3.33087892 17.1564343,4.4026964 17.3366834,5.90324086 Z"></path>
                <path d="M29.2495084,3.82556391 L29.5608478,6.34845735 C29.8394144,8.68996629 28.0369237,10.8500907 25.5462092,11.1469017 L7.91457286,13.3070262 C7.61961984,13.3400052 7.35743936,13.1256417 7.3246668,12.8453202 C7.29189426,12.5485092 7.50491587,12.2846772 7.78348263,12.2516982 L25.4151191,10.0915738 C27.3159274,9.86072077 28.7087612,8.2447498 28.4957396,6.48037335 L28.1844002,3.95747991 C27.9713786,2.20959295 26.2508192,0.972880477 24.3336247,1.20373347 L4.2604326,3.66066891 C2.35962421,3.8915219 0.966790473,5.50749287 1.1798121,7.27186932 C1.21258466,7.56868032 0.999563031,7.83251231 0.720996285,7.86549132 C0.42604326,7.89847032 0.163862792,7.68410682 0.131090234,7.40378533 C-0.147476513,5.06227638 1.6550142,2.90215193 4.14572863,2.60534093 L24.2353069,0.148405496 C26.7096351,-0.164894996 28.9709416,1.48405496 29.2495084,3.82556391 Z"></path>
            </g>
            <circle fill="#D34A6D" transform="translate(285.815409, 199.869827) rotate(-76.714204) translate(-285.815409, -199.869827) " cx="285.815409" cy="199.869827" r="1.66037736"></circle>
            <path d="M505.437472,391.043505 L31.2840966,391.043505 C30.9891435,391.043505 30.7433494,390.796163 30.7433494,390.499352 L30.7433494,390.317968 C30.7433494,390.021157 30.9891435,389.773814 31.2840966,389.773814 L505.437472,389.773814 C505.732425,389.773814 505.978219,390.021157 505.978219,390.317968 L505.978219,390.499352 C505.978219,390.796163 505.732425,391.043505 505.437472,391.043505 Z" fill="#2E3552"></path>
        </g>
    </g>
</svg>
