<svg width="30px" height="30px" viewBox="0 0 30 30" version="1.1" xmlns="http://www.w3.org/2000/svg" xmlns:xlink="http://www.w3.org/1999/xlink">
    <g id="Page-1" stroke="none" stroke-width="1" fill="none" fill-rule="evenodd">
        <rect id="Rectangle" fill="#FFFFFF" x="0" y="0" width="30" height="30"></rect>
        <g id="class" transform="translate(5.000000, 7.000000)" fill="#2F3758" fill-rule="nonzero">
            <path d="M3.956,6.77602841 C2.68840706,6.76497704 1.66870576,5.73040217 1.6759603,4.46278252 C1.6833712,3.19516286 2.71497314,2.17245404 3.98260877,2.1760771 C5.2502444,2.17973886 6.27595207,3.20835914 6.276,4.476 C6.26938829,5.75132095 5.23133039,6.78043007 3.956,6.77602841 Z M3.956,2.824 C3.04494584,2.83501777 2.31436969,3.5807513 2.32205999,4.49183962 C2.32975028,5.40292794 3.0728106,6.13622283 3.98392093,6.13189867 C4.89503126,6.12749737 5.6310351,5.38712019 5.63000218,4.476 C5.62065738,3.55941266 4.87262415,2.82255078 3.956,2.827 L3.956,2.824 Z" id="Shape"></path>
            <path d="M4.889,13.144 L0.843,13.144 C0.378917303,13.1451066 0.00165415279,12.7700811 0,12.306 L0,11.251 C0.0175931676,9.76372682 0.866282867,8.4114617 2.19793793,7.74890165 C3.52959299,7.0863416 5.12008629,7.22500023 6.317,8.108 C6.44915659,8.21726393 6.47289888,8.41075341 6.37107984,8.54872751 C6.2692608,8.68670162 6.07737273,8.72106504 5.934,8.627 C4.93294014,7.88850736 3.6029675,7.77180504 2.48859347,8.32467278 C1.37421944,8.87754051 0.662567894,10.0071417 0.645,11.251 L0.645,12.306 C0.648772282,12.413714 0.737219963,12.499066 0.845,12.499 L4.89,12.499 C5.00950342,12.4923429 5.12289108,12.5523137 5.18464774,12.6548393 C5.24640441,12.7573649 5.24640441,12.8856351 5.18464774,12.9881607 C5.12289108,13.0906863 5.00950342,13.1506571 4.89,13.144 L4.889,13.144 Z" id="Path"></path>
            <path d="M19.157,12.9 L15.111,12.9 C14.9398571,12.8904663 14.8059652,12.7489083 14.8059652,12.5775 C14.8059652,12.4060917 14.9398571,12.2645337 15.111,12.255 L19.158,12.255 C19.2654067,12.255086 19.3537038,12.1703208 19.358,12.063 L19.358,11.008 C19.3426022,9.19210752 17.8629475,7.72988153 16.047,7.736 C15.2829793,7.73529642 14.5417972,7.99647487 13.947,8.476 C13.8589697,8.55953137 13.7315472,8.58667193 13.6171182,8.54626365 C13.5026892,8.50585537 13.4205655,8.40471777 13.4045097,8.2844305 C13.3884539,8.16414323 13.4411756,8.04500659 13.541,7.976 C14.2492404,7.40515957 15.1313501,7.09359841 16.041,7.09294137 C18.2144521,7.08469055 19.9843313,8.83756892 19.997,11.011 L19.997,12.066 C19.9953458,12.5300811 19.6180827,12.9051066 19.154,12.9040048 L19.157,12.9 Z" id="Path"></path>
            <path d="M16.044,6.61902841 C14.7764071,6.60797704 13.7567058,5.57340217 13.7639603,4.30578252 C13.7713712,3.03816286 14.8029731,2.01545404 16.0706088,2.0190771 C17.3382444,2.02273886 18.3639521,3.05135914 18.364,4.319 C18.3573883,5.59432095 17.3193304,6.62343007 16.044,6.61902841 L16.044,6.61902841 Z M16.044,2.667 C15.1333443,2.67856307 14.4033745,3.42412579 14.4110589,4.33482246 C14.4187432,5.24551913 15.1611902,5.97865775 16.0719113,5.97488162 C16.9826324,5.97104673 17.7189266,5.23172909 17.719,4.321 C17.7112977,3.40284549 16.9621732,2.6640075 16.044,2.669 L16.044,2.667 Z" id="Shape"></path>
            <path d="M14.378,14.1940088 L5.622,14.1940088 C5.04177341,14.1956612 4.56975536,13.7272224 4.567,13.147 L4.567,11.662 C4.567,8.66143695 6.99943695,6.229 10,6.229 C13.000563,6.229 15.433,8.66143695 15.433,11.662 L15.433,13.146 C15.4302446,13.7262224 14.9582266,14.1946612 14.378,14.193 L14.378,14.1940088 Z M10,6.92889571 C7.3716818,6.91680842 5.22961904,9.03471258 5.212,11.663 L5.212,13.147 C5.21529145,13.3704477 5.39853915,13.5492259 5.622,13.5470408 L14.378,13.5470408 C14.6014609,13.5492259 14.7847085,13.3704477 14.788,13.147 L14.788,11.663 C14.770381,9.03471258 12.6283182,6.91680842 10,6.92889571 L10,6.92889571 Z" id="Shape"></path>
            <path d="M9.888,5.90604187 C8.25026686,5.91154243 6.91691299,4.59071251 6.907,2.953 C6.93676795,1.32764516 8.26287259,0.0256054027 9.8885,0.0256054027 C11.5141274,0.0256054027 12.840232,1.32764516 12.87,2.953 C12.8600866,4.59110422 11.5261229,5.91209512 9.888,5.90604187 L9.888,5.90604187 Z M9.888,0.644936389 C8.60626057,0.63890163 7.56135746,1.67128022 7.552,2.953 C7.552,4.24341332 8.59808668,5.2895 9.8885,5.2895 C11.1789133,5.2895 12.225,4.24341332 12.225,2.953 C12.2156424,1.67088794 11.1701289,0.638348323 9.888,0.644936389 L9.888,0.644936389 Z" id="Shape"></path>
        </g>
    </g>
</svg>
