<svg width="30px" height="30px" viewBox="0 0 30 30" version="1.1" xmlns="http://www.w3.org/2000/svg" xmlns:xlink="http://www.w3.org/1999/xlink">
    <g id="Page-1" stroke="none" stroke-width="1" fill="none" fill-rule="evenodd">
        <rect id="Rectangle" fill="#FFFFFF" x="0" y="0" width="30" height="30"></rect>
        <g id="training" transform="translate(3.000000, 6.000000)" fill-rule="nonzero">
            <path d="M23.4737455,13.4133818 L22.3557818,13.4133818 L22.3557818,1.86283636 C22.3545795,0.834518665 21.5212632,0.00120229013 20.4929455,0 L3.35345455,0 C2.32513685,0.00120229013 1.49182047,0.834518665 1.49061818,1.86283636 L1.49061818,13.4133818 L0.372654545,13.4133818 C0.273820415,13.4133818 0.179034273,13.4526435 0.109147989,13.5225298 C0.0392617055,13.5924161 0,13.6872022 0,13.7860364 L0,14.5309091 C0.000961850371,15.5593972 0.834348512,16.3929791 1.86283636,16.3941818 L21.9831273,16.3941818 C23.0116151,16.3929791 23.8450018,15.5593972 23.8459636,14.5309091 L23.8459636,13.7860364 C23.8459636,13.5803952 23.6793864,13.4136226 23.4737455,13.4133818 Z M2.23549091,1.86283636 C2.23549091,1.2454021 2.73602028,0.744872727 3.35345455,0.744872727 L20.4929455,0.744872727 C21.1103797,0.744872727 21.6109091,1.2454021 21.6109091,1.86283636 L21.6109091,13.4133818 L2.23549091,13.4133818 L2.23549091,1.86283636 Z M14.1586909,14.1586909 C14.1586909,14.3645023 13.9918478,14.5313455 13.7860364,14.5313455 L10.0599273,14.5313455 C9.85411585,14.5313455 9.68727273,14.3645023 9.68727273,14.1586909 L14.1586909,14.1586909 Z M23.1010909,14.5309091 C23.1010909,15.1483434 22.6005615,15.6488727 21.9831273,15.6488727 L1.86283636,15.6488727 C1.24557251,15.6486318 0.745309091,15.148173 0.745309091,14.5309091 L0.745309091,14.1582545 L8.9424,14.1582545 C8.9424,14.7756888 9.44292937,15.2762182 10.0603636,15.2762182 L13.7864727,15.2762182 C14.403907,15.2762182 14.9044364,14.7756888 14.9044364,14.1582545 L23.1010909,14.1582545 L23.1010909,14.5309091 Z" id="Shape" fill="#2F3758"></path>
            <path d="M16.5216,11.1552 C16.6684555,11.1017674 16.7663734,10.9623824 16.7668364,10.8061091 L16.7668364,7.82443636 C16.7668364,7.61862494 16.5999932,7.45178182 16.3941818,7.45178182 C16.1883704,7.45178182 16.0215273,7.61862494 16.0215273,7.82443636 L16.0215273,10.5412364 C13.6091917,11.3846307 10.9820811,11.3846307 8.56974545,10.5412364 L8.56974545,7.82443636 C8.56974544,7.61862495 8.40290232,7.45178182 8.19709091,7.45178182 C7.9912795,7.45178182 7.82443636,7.61862495 7.82443636,7.82443636 L7.82443636,10.8052364 C7.82489931,10.9615097 7.92281725,11.1008947 8.06967273,11.1543273 C10.7946753,12.1742408 13.7965974,12.1742408 16.5216,11.1543273 L16.5216,11.1552 Z" id="Path" fill="#4AD3B0"></path>
            <path d="M5.58894545,6.77541818 L5.58894545,5.75083636 L11.6513455,7.98458182 C12.0672372,8.13764142 12.5240355,8.13764142 12.9399273,7.98458182 L19.5024,5.56581818 C19.6480766,5.51139743 19.7446439,5.37223707 19.7446439,5.21672727 C19.7446439,5.06121748 19.6480766,4.92205711 19.5024,4.86763636 L12.9399273,2.44843636 C12.523988,2.29564334 12.0672847,2.29564334 11.6513455,2.44843636 L5.08756364,4.8672 C4.94139585,4.92121026 4.84426651,5.06046379 4.84407273,5.21629091 L4.84407273,6.77541818 C4.39897202,6.9327806 4.10069558,7.35277757 4.09876364,7.82487273 L4.09876364,8.57018182 C4.09876364,8.77599324 4.26560676,8.94283636 4.47141818,8.94283636 L5.9616,8.94283636 C6.16741142,8.94283636 6.33425455,8.77599324 6.33425455,8.57018182 L6.33425455,7.82487273 C6.3323226,7.35277757 6.03404616,6.9327806 5.58894545,6.77541818 Z M11.9096727,3.14792727 C12.1591233,3.05629133 12.4330221,3.05629133 12.6824727,3.14792727 L18.2976,5.21672727 L12.6824727,7.28509091 C12.4330221,7.37672685 12.1591233,7.37672685 11.9096727,7.28509091 L6.29454545,5.21629091 L11.9096727,3.14792727 Z M5.58894545,8.19709091 L4.84407273,8.19709091 L4.84407273,7.82443636 C4.84407273,7.61862494 5.01091585,7.45178182 5.21672728,7.45178182 C5.4225387,7.45178182 5.58938182,7.61862494 5.58938182,7.82443636 L5.58894545,8.19709091 Z" id="Shape" fill="#4AD3B0"></path>
        </g>
    </g>
</svg>
